<svg width="32" height="32" viewBox="0 0 32 32" fill="none" xmlns="http://www.w3.org/2000/svg">
<g clip-path="url(#clip0_1067_80)">
<path d="M25.6105 27.5466C28.0574 25.9215 32.9502 22.3463 30.3968 18.1211C27.2041 23.3214 15.0783 27.0049 10.2905 27.5466C8.37546 27.98 5.63065 29.2367 9.9713 30.7967C14.312 32.3569 22.2061 29.28 25.6105 27.5466Z" fill="#546E37" style="fill:#546E37;fill:color(display-p3 0.3294 0.4314 0.2157);fill-opacity:1;"/>
<path d="M0.0742188 16.496C7.41503 15.9543 22.735 11.6207 24.65 3.82031C28.48 5.12038 29.5069 6.74697 29.4376 8.37056C29.1184 15.8459 12.8409 20.7212 10.6067 21.3712C9.63627 21.6536 1.35089 23.3213 0.71255 20.3962C0.201885 18.0561 0.0742188 16.821 0.0742188 16.496Z" fill="#546E37" style="fill:#546E37;fill:color(display-p3 0.3294 0.4314 0.2157);fill-opacity:1;"/>
<path d="M17.6308 2.84723C13.8008 8.69764 2.80635 8.83959 2.63138 7.39698C2.31562 4.7935 13.8008 2.1972 17.6308 2.84723Z" fill="#546E37" style="fill:#546E37;fill:color(display-p3 0.3294 0.4314 0.2157);fill-opacity:1;"/>
<path d="M4.86296 25.9204C3.90188 27.2207 5.18087 28.8458 9.65044 30.7957C12.8442 26.5704 20.6501 27.9039 21.4575 28.5205C22.7341 29.4956 21.1383 30.6873 20.5 30.4707C19.5425 30.1456 14.1167 30.7957 16.9892 31.7707C20.0468 32.8086 27.2025 29.1706 27.5217 25.5954C26.5642 22.3452 21.1383 22.0204 16.0317 22.3453C10.9349 22.6696 6.09056 24.2595 4.86296 25.9204Z" fill="#B1CA55" style="fill:#B1CA55;fill:color(display-p3 0.6941 0.7922 0.3333);fill-opacity:1;"/>
<path d="M1.03494 12.27C0.0774467 13.5701 -0.563436 15.8452 0.71696 20.3955C6.77741 14.8701 15.714 15.1952 19.2249 15.1952C21.1399 15.1952 31.6724 15.1952 31.0392 21.6956C31.3531 18.7704 33.9064 13.2451 29.1242 10.3199C23.2498 6.7267 14.4426 8.04482 9.97427 8.69492C5.53958 9.34007 1.99245 10.97 1.03494 12.27Z" fill="#B1CA55" style="fill:#B1CA55;fill:color(display-p3 0.6941 0.7922 0.3333);fill-opacity:1;"/>
<path d="M21.7773 0.89541C16.9898 -1.05469 7.27439 -0.0796634 3.26562 6.42069C3.7132 5.69493 6.8989 3.53744 15.3939 2.84539C23.3731 2.19535 27.4159 4.68723 28.7989 6.42069C28.0542 5.22897 25.6072 2.45549 21.7773 0.89541Z" fill="#B1CA55" style="fill:#B1CA55;fill:color(display-p3 0.6941 0.7922 0.3333);fill-opacity:1;"/>
</g>
<defs>
<clipPath id="clip0_1067_80">
<rect width="32" height="32" fill="white" style="fill:white;fill-opacity:1;"/>
</clipPath>
</defs>
</svg>
